<svg version="1.1" id="Layer_1" xmlns="http://www.w3.org/2000/svg" xmlns:xlink="http://www.w3.org/1999/xlink" x="0px" y="0px"
	 width="100%" viewBox="0 0 2130 893" enable-background="new 0 0 2130 893" xml:space="preserve">
<path fill="#901340" opacity="1.000000" stroke="none" 
	d="
M1567.000000,894.000000 
	C1546.312378,894.000000 1525.624878,894.000000 1504.281494,893.604614 
	C1491.690186,892.140930 1479.698364,891.491272 1467.834961,889.888977 
	C1455.452026,888.216431 1443.059937,886.189453 1430.908813,883.315308 
	C1408.650879,878.050659 1387.236938,870.440491 1367.160278,859.134766 
	C1353.431274,851.403564 1340.784668,842.296143 1329.295898,831.662781 
	C1314.623779,818.083252 1303.179199,801.901367 1293.486206,784.370850 
	C1292.224731,786.124390 1291.088989,787.694885 1289.961792,789.271484 
	C1278.831909,804.838867 1266.035889,818.707031 1250.588013,830.222229 
	C1236.038086,841.068237 1220.456665,849.836121 1203.867676,857.090515 
	C1184.351440,865.624878 1164.100342,871.918518 1143.276367,875.796570 
	C1120.710083,879.999268 1097.922363,883.249023 1075.106812,885.803162 
	C1057.600098,887.762939 1039.901855,888.835205 1022.286316,888.866943 
	C887.461670,889.109436 752.636414,889.000122 617.811340,889.000122 
	C615.997314,889.000122 614.183289,889.000061 612.216797,889.000061 
	C598.627625,834.486511 585.106567,780.246521 571.606689,726.091187 
	C484.667786,726.091187 398.187683,726.091187 311.241272,726.091187 
	C298.335052,780.299988 285.423981,834.529114 272.455383,889.000000 
	C181.954941,889.000000 91.477470,889.000000 1.000000,889.000000 
	C1.000000,887.611084 1.000000,886.222229 1.369053,884.268311 
	C1.846749,882.704773 1.838681,881.676880 2.080906,880.711853 
	C11.374808,843.685669 20.718321,806.671936 29.997807,769.642090 
	C39.123646,733.225403 48.166985,696.788086 57.284279,660.369202 
	C66.832924,622.227295 76.438957,584.099854 85.996765,545.960266 
	C94.847015,510.644135 103.673958,475.322174 112.497772,439.999420 
	C121.674591,403.263550 130.816849,366.519104 140.008484,329.786987 
	C148.846268,294.468811 157.887436,259.200684 166.541489,223.837677 
	C173.928528,193.651993 181.199738,163.430771 187.910873,133.090042 
	C191.118484,118.588577 188.865005,104.017326 185.299271,89.735329 
	C180.792206,71.683006 170.487213,57.000416 158.076263,43.612198 
	C147.726227,32.447208 137.196808,21.448011 126.905960,10.229417 
	C125.754562,8.974219 124.855705,6.590559 125.204498,5.036539 
	C126.013443,1.432393 129.315613,1.990834 132.130905,1.990998 
	C301.295776,2.000858 470.460632,1.991659 639.625488,2.041877 
	C644.377258,2.043288 649.252869,2.102188 653.857239,3.109893 
	C667.174072,6.024422 678.516785,12.278729 687.607361,22.885210 
	C694.664185,31.118887 697.917419,40.620197 700.473450,50.814190 
	C708.987976,84.772171 717.818848,118.650833 726.552917,152.655029 
	C726.956604,152.318649 727.523804,152.082611 727.671021,151.689392 
	C733.101868,137.181595 740.701416,123.832451 749.441711,111.111710 
	C761.002502,94.285988 775.113647,79.776909 791.267395,67.437874 
	C811.880676,51.692448 834.818726,39.931919 859.147339,31.100628 
	C891.762573,19.261324 925.608643,12.455317 959.946533,8.066008 
	C973.269409,6.362985 986.658875,5.062484 1000.054810,4.081715 
	C1013.884216,3.069209 1027.757935,2.097251 1041.613159,2.086598 
	C1214.111206,1.953975 1386.609253,1.999843 1559.107422,1.999843 
	C1560.689941,1.999843 1562.272461,1.999843 1564.000000,1.999843 
	C1564.000000,4.714353 1564.000000,6.706734 1564.000000,8.699115 
	C1564.000000,213.363571 1563.982422,418.028046 1564.084106,622.692444 
	C1564.087158,628.864868 1564.686646,635.191833 1566.119385,641.180847 
	C1571.313599,662.893860 1584.461060,677.793762 1605.665161,685.246338 
	C1621.351318,690.759460 1637.369751,691.716431 1653.790405,689.071228 
	C1675.526123,685.569885 1694.957031,677.910461 1709.782227,660.770874 
	C1720.098389,648.844177 1725.879272,634.985352 1725.891724,619.404358 
	C1726.054688,415.739960 1726.000000,212.075470 1726.000000,8.410993 
	C1726.000000,6.325291 1726.000000,4.239590 1726.000000,2.386876 
	C1824.106201,2.386876 1921.501465,2.386876 2019.000000,2.386876 
	C2019.000000,4.772293 2019.000000,6.770797 2019.000000,8.769301 
	C2019.000000,261.599915 2018.994019,514.430542 2019.041504,767.261169 
	C2019.042480,772.516602 2019.467285,777.793030 2020.030518,783.023438 
	C2021.944702,800.804138 2029.177612,816.720947 2040.194458,830.281616 
	C2053.283691,846.393188 2068.110596,861.085083 2081.932373,876.616821 
	C2084.454102,879.450562 2085.766357,883.360596 2087.636963,886.773804 
	C2083.852295,887.849243 2080.069336,889.856018 2076.282471,889.863525 
	C1987.617188,890.039856 1898.951294,890.039978 1810.285767,889.913879 
	C1804.110107,889.905090 1797.807617,889.238586 1791.785645,887.889526 
	C1773.392212,883.768738 1759.192871,873.343933 1751.293945,856.262024 
	C1745.563477,843.869385 1741.946777,830.499329 1737.634521,818.266113 
	C1733.413208,823.615234 1729.118774,829.776672 1724.076294,835.248901 
	C1718.817627,840.955627 1713.176147,846.422241 1707.112671,851.254272 
	C1685.440430,868.524902 1660.509277,879.330505 1633.817505,885.820129 
	C1613.088257,890.860168 1591.839111,892.759338 1570.480225,893.041321 
	C1569.316162,893.056641 1568.159912,893.666809 1567.000000,894.000000 
M1308.818604,273.331482 
	C1345.738159,238.925369 1382.634277,204.494095 1419.625854,170.165619 
	C1422.304199,167.680191 1422.951782,164.852707 1421.357910,162.205261 
	C1419.544067,159.192398 1416.312744,159.471375 1413.348999,161.025192 
	C1412.465698,161.488235 1411.629028,162.040909 1410.775146,162.559235 
	C1361.521729,192.457687 1312.272461,222.363312 1262.998291,252.227631 
	C1261.362915,253.218826 1259.474365,253.792236 1257.703735,254.560379 
	C1257.463013,254.165894 1257.222168,253.771423 1256.981323,253.376938 
	C1257.914307,252.055984 1258.814575,250.710617 1259.785034,249.417740 
	C1288.389038,211.311081 1317.012329,173.219009 1345.598389,135.098938 
	C1350.794678,128.169525 1356.014404,121.243546 1360.820679,114.047119 
	C1361.832520,112.532249 1361.962158,108.909485 1360.917603,107.910248 
	C1359.493042,106.547554 1356.540527,106.392288 1354.266602,106.464020 
	C1353.038696,106.502762 1351.793701,108.015106 1350.668457,108.991814 
	C1319.593628,135.964264 1288.534424,162.954498 1257.470215,189.939133 
	C1245.271118,200.536179 1233.093506,211.158356 1220.816162,221.664017 
	C1219.785522,222.545929 1218.068848,222.626038 1216.671021,223.078705 
	C1216.835449,222.080383 1216.768311,220.967422 1217.197632,220.100128 
	C1241.192139,171.614471 1265.253784,123.161957 1289.209839,74.657280 
	C1291.054688,70.922134 1295.378052,66.597435 1289.998047,62.820690 
	C1286.642944,60.465458 1284.534912,60.978275 1278.837280,68.048637 
	C1244.130493,111.117805 1209.209229,154.014252 1174.546509,197.118698 
	C1171.559814,200.832809 1169.288940,201.095810 1165.023560,199.466660 
	C1134.783813,187.916245 1103.677368,179.478912 1071.217651,178.141342 
	C1055.044556,177.474899 1038.755493,179.042892 1022.544800,180.026138 
	C1005.748779,181.044907 989.753174,185.488312 974.659607,192.940353 
	C953.545227,203.365005 941.745667,220.622070 939.158142,243.782074 
	C937.570190,257.995026 942.156982,271.012238 950.224182,282.694275 
	C958.820435,295.142334 970.569763,304.155823 983.289795,311.964935 
	C1005.672546,325.705963 1030.021851,335.239868 1054.270386,345.009399 
	C1094.697388,361.297150 1135.483398,376.789185 1175.318604,394.422668 
	C1212.968262,411.088623 1247.636963,432.934692 1276.156494,463.338013 
	C1302.647949,491.579407 1322.088013,523.645203 1329.273682,562.250122 
	C1329.818359,565.177063 1331.535156,565.736084 1334.023193,566.293762 
	C1379.492065,576.485962 1424.940186,586.770264 1470.392090,597.037842 
	C1479.969238,599.201294 1489.553833,601.333679 1499.114746,603.567017 
	C1502.600342,604.381348 1505.691406,603.932617 1506.983643,600.337158 
	C1508.264160,596.775085 1505.875122,594.800415 1502.813110,593.536560 
	C1501.737427,593.092529 1500.697144,592.563721 1499.630981,592.095764 
	C1446.903198,568.953552 1394.173462,545.815857 1341.449707,522.664490 
	C1339.857178,521.965210 1338.326050,521.126221 1335.954712,519.949829 
	C1337.637573,519.044861 1338.438721,518.222107 1339.179443,518.273315 
	C1356.291260,519.455811 1373.388062,520.867188 1390.505615,521.950500 
	C1404.031982,522.806641 1417.588013,523.184326 1431.120850,523.950806 
	C1447.126831,524.857422 1463.124878,525.910156 1479.120972,526.980469 
	C1493.307373,527.929504 1507.480347,529.087524 1521.672729,529.927429 
	C1524.982178,530.123291 1528.774536,529.598083 1529.330322,525.331421 
	C1529.885742,521.068420 1526.613403,519.837158 1523.131836,518.948120 
	C1498.462036,512.648254 1473.810669,506.276184 1449.150879,499.937225 
	C1416.593994,491.568207 1384.031738,483.220184 1351.484131,474.815704 
	C1349.534668,474.312317 1347.693604,473.389526 1345.802124,472.661865 
	C1345.957642,472.157104 1346.113159,471.652313 1346.268677,471.147522 
	C1356.419800,470.100098 1366.566284,469.003937 1376.723389,468.016022 
	C1394.215210,466.314697 1411.713013,464.672974 1429.209717,463.020508 
	C1450.840820,460.977539 1472.474121,458.955750 1494.105225,456.911926 
	C1506.183105,455.770782 1518.264648,454.663483 1530.330811,453.407837 
	C1533.527466,453.075165 1537.025513,452.351898 1536.892090,448.094208 
	C1536.764282,444.017670 1533.550659,443.233582 1530.180664,442.915436 
	C1505.911987,440.624237 1481.647095,438.293274 1457.377563,436.011292 
	C1435.067383,433.913544 1412.751709,431.873749 1390.440918,429.784119 
	C1377.204102,428.544342 1363.968872,427.285187 1350.740967,425.955750 
	C1349.135498,425.794373 1347.579590,425.139893 1346.000732,424.713959 
	C1345.997559,424.251740 1345.994263,423.789490 1345.991089,423.327271 
	C1347.640747,422.803253 1349.269653,422.199768 1350.942871,421.766724 
	C1408.457764,406.880463 1465.970947,391.987061 1523.509155,377.191772 
	C1527.232666,376.234283 1529.724243,374.846802 1529.015503,370.524414 
	C1528.355103,366.497711 1525.211548,366.858795 1522.429932,367.030945 
	C1507.422485,367.959503 1492.422852,369.015656 1477.417847,369.984650 
	C1456.438965,371.339447 1435.461670,372.724731 1414.475830,373.964600 
	C1400.921875,374.765381 1387.348755,375.241699 1373.794189,376.032501 
	C1365.720337,376.503601 1357.672241,377.411530 1349.599365,377.908264 
	C1345.425659,378.165100 1341.223022,377.953461 1337.033447,377.953461 
	C1336.935425,377.385559 1336.837402,376.817688 1336.739258,376.249786 
	C1338.244995,375.457764 1339.708496,374.568970 1341.262817,373.887909 
	C1383.182129,355.519928 1425.112427,337.176636 1467.037231,318.820892 
	C1478.775635,313.681458 1490.458618,308.411774 1502.262695,303.428192 
	C1505.630737,302.006317 1507.630737,300.173370 1506.998901,296.376465 
	C1506.321167,292.304108 1503.066284,293.011505 1500.332153,293.018188 
	C1498.860107,293.021759 1497.370361,293.352936 1495.920410,293.677887 
	C1438.435303,306.561951 1380.956055,319.471680 1323.461548,332.313446 
	C1321.794556,332.685760 1319.971924,332.360565 1318.221802,332.360565 
	C1318.851807,330.754486 1319.593506,330.137146 1320.395630,329.611877 
	C1368.740967,297.949371 1417.077759,266.273712 1465.469482,234.682129 
	C1468.980835,232.389801 1473.007446,230.082092 1470.538696,225.482147 
	C1468.164551,221.058167 1463.949707,223.241180 1460.343994,224.687912 
	C1406.289917,246.376160 1352.231812,268.054688 1298.151733,289.677826 
	C1296.121826,290.489441 1293.858154,290.716705 1291.703491,291.216278 
	C1291.536377,290.717804 1291.369385,290.219360 1291.202271,289.720917 
	C1296.899658,284.415985 1302.597046,279.111053 1308.818604,273.331482 
M720.353394,477.886292 
	C709.713501,480.608673 699.070557,483.319183 688.434265,486.055481 
	C645.725952,497.042786 603.020691,508.041840 560.310730,519.022766 
	C557.168335,519.830688 554.358765,521.113403 554.989075,524.966309 
	C555.577026,528.559753 558.013733,530.335999 561.768616,530.000549 
	C566.050659,529.618042 570.326477,529.139893 574.615479,528.867615 
	C580.716858,528.480286 586.833008,528.321350 592.933716,527.925476 
	C607.286438,526.993896 621.629944,525.919800 635.984680,525.023560 
	C643.598206,524.548279 651.234863,524.442261 658.847900,523.960571 
	C673.181946,523.053528 687.503906,521.955139 701.836182,521.016907 
	C708.784363,520.562073 715.752380,520.398438 722.697266,519.904541 
	C729.922058,519.390869 737.126953,518.602722 744.348206,518.030151 
	C745.351501,517.950562 746.398132,518.418152 747.424744,518.632446 
	C745.740845,520.770569 743.862244,521.946533 741.853638,522.825256 
	C691.232910,544.971680 640.597412,567.084412 589.968750,589.212708 
	C586.461792,590.745483 582.672424,591.916077 579.629761,594.108826 
	C578.084900,595.222168 576.714539,598.849304 577.422913,600.244324 
	C578.314819,602.000549 581.706909,603.963745 583.516785,603.563049 
	C642.646912,590.474609 701.715332,577.107483 760.801025,563.817505 
	C762.386230,563.460999 764.060486,563.500305 765.693176,563.354980 
	C765.864990,563.825500 766.036743,564.296082 766.208496,564.766602 
	C764.833374,565.771362 763.499939,566.839722 762.077026,567.771484 
	C731.284363,587.935669 700.480225,608.082336 669.681580,628.237244 
	C651.982422,639.819763 634.302246,651.431519 616.578674,662.976562 
	C613.786194,664.795654 611.785095,666.948608 613.427124,670.349792 
	C615.059814,673.731689 618.184021,673.543152 621.233826,672.637817 
	C622.982056,672.118835 624.648743,671.322815 626.347900,670.640991 
	C679.632324,649.258240 732.913330,627.866760 786.213196,606.522583 
	C787.981018,605.814758 789.940125,605.584656 791.810059,605.131897 
	C792.479187,606.078186 793.148315,607.024475 793.817444,607.970764 
	C792.151978,608.759399 790.158325,609.193787 788.869080,610.388428 
	C756.858337,640.048706 724.920959,669.788086 692.973267,699.516479 
	C683.340027,708.480408 673.745789,717.486633 664.064819,726.398682 
	C661.662109,728.610657 660.237122,731.426880 662.735596,733.649902 
	C664.399902,735.130798 667.668274,734.903137 670.246399,735.197754 
	C670.908386,735.273376 671.681152,734.441528 672.393066,734.010132 
	C685.210510,726.242126 698.028625,718.475403 710.842224,710.701111 
	C747.289795,688.587952 783.727783,666.458984 820.203796,644.392822 
	C822.056335,643.272156 824.230164,642.682739 826.254395,641.845947 
	C826.481934,642.298401 826.709534,642.750854 826.937134,643.203247 
	C826.146851,644.416565 825.422546,645.679321 824.556335,646.835754 
	C810.472900,665.636902 796.376526,684.428406 782.272583,703.214294 
	C762.867188,729.061462 743.462463,754.909119 724.027954,780.734436 
	C722.054932,783.356262 720.701416,786.114258 723.545349,788.697693 
	C726.250061,791.154724 729.343506,790.710388 732.146057,788.442566 
	C732.792908,787.919128 733.410461,787.359314 734.038574,786.812927 
	C776.521545,749.853882 818.997925,712.887390 861.511719,675.963806 
	C863.053528,674.624695 864.961914,673.707642 866.699463,672.593872 
	C867.021790,672.992126 867.344055,673.390381 867.666382,673.788635 
	C867.103882,675.118042 866.607605,676.480225 865.969238,677.772156 
	C846.871460,716.422424 827.755920,755.063904 808.652466,793.711365 
	C803.415588,804.305969 798.221252,814.921692 792.979126,825.513672 
	C791.513611,828.474792 790.923401,831.379028 794.234558,833.383118 
	C797.418396,835.309998 800.301880,834.483521 802.582153,831.566589 
	C802.889832,831.172974 803.171936,830.759094 803.486145,830.371033 
	C838.607361,786.993896 873.761475,743.643311 908.779907,700.183411 
	C910.966736,697.469421 912.664856,697.029175 915.827332,698.259460 
	C923.422241,701.213867 931.068481,704.164917 938.913086,706.320007 
	C951.860779,709.877075 964.833008,714.207092 978.070312,715.606812 
	C991.482239,717.024963 1005.277832,715.892944 1018.816162,714.786316 
	C1039.853638,713.066711 1060.150757,707.965576 1078.940918,697.993347 
	C1096.873413,688.476196 1111.911255,675.824585 1116.835571,655.203125 
	C1123.307251,628.101562 1114.848877,604.965027 1095.202393,585.760132 
	C1079.582764,570.491455 1060.727417,560.015930 1040.715210,552.048218 
	C1012.285583,540.729187 983.482666,530.319336 954.660034,520.022888 
	C915.302917,505.963135 875.918396,492.019775 839.160706,471.784149 
	C798.804932,449.567749 764.008423,421.325500 740.747437,380.608124 
	C740.027466,379.347961 738.037170,378.255402 736.531616,378.095215 
	C728.327209,377.222351 720.098022,376.513824 711.860657,376.036011 
	C698.141907,375.240265 684.409485,374.682526 670.684937,373.983032 
	C664.911194,373.688782 659.140015,373.328400 653.372498,372.929047 
	C639.517517,371.969666 625.666687,370.949585 611.811462,369.994995 
	C605.876038,369.586121 599.934448,369.264130 593.994202,368.929138 
	C582.416504,368.276245 570.841309,367.545654 559.254883,367.129120 
	C557.892700,367.080139 555.432617,368.671051 555.299683,369.729919 
	C555.068176,371.574554 555.830750,373.918274 556.986023,375.437134 
	C557.820312,376.534058 559.936218,376.749146 561.531372,377.160889 
	C618.248596,391.802612 674.973022,406.416443 731.690186,421.058533 
	C734.137085,421.690277 736.524414,422.553040 738.939453,423.308167 
	C738.915039,423.816010 738.890625,424.323883 738.866211,424.831726 
	C736.536682,425.208710 734.219666,425.715302 731.875549,425.941010 
	C719.137451,427.167511 706.391968,428.318390 693.650208,429.507172 
	C670.520691,431.665100 647.387512,433.786224 624.263977,436.006836 
	C600.628967,438.276611 577.009888,440.713898 553.367432,442.901123 
	C549.902222,443.221741 547.191345,444.088440 547.323730,447.868591 
	C547.458130,451.703430 550.284973,452.936615 553.884827,453.231750 
	C564.461365,454.098999 575.021118,455.171021 585.587402,456.163452 
	C634.949829,460.799896 684.313171,465.426727 733.670471,470.117096 
	C735.252197,470.267395 736.771912,471.068695 738.320557,471.566528 
	C738.301575,472.068970 738.282593,472.571381 738.263672,473.073822 
	C732.558167,474.613586 726.852661,476.153320 720.353394,477.886292 
M478.006378,349.420654 
	C465.955200,300.772644 453.903992,252.124619 441.565491,202.316788 
	C411.627106,323.282043 381.992645,443.019318 352.397308,562.598511 
	C412.158722,562.598511 471.520081,562.598511 531.101685,562.598511 
	C527.546509,548.194824 524.111938,534.217468 520.645813,520.247986 
	C510.436218,479.099823 500.245911,437.946838 489.980499,396.812592 
	C486.102692,381.273743 482.040009,365.781006 478.006378,349.420654 
M1461.478149,659.038208 
	C1418.512085,630.966431 1375.546021,602.894653 1332.549316,574.802795 
	C1333.051025,589.990601 1333.434326,604.564331 1334.181641,619.119446 
	C1334.248535,620.421997 1336.462891,622.130798 1338.036743,622.763855 
	C1378.895386,639.201599 1419.797974,655.530029 1460.711060,671.832031 
	C1462.375488,672.495239 1464.347168,673.329224 1465.938843,672.985718 
	C1467.768921,672.590759 1470.252075,671.286377 1470.761597,669.798462 
	C1471.286865,668.264099 1470.296387,665.540527 1469.040283,664.223083 
	C1467.139526,662.229614 1464.434204,661.003113 1461.478149,659.038208 
M622.563110,300.997681 
	C610.076904,298.172180 597.575562,295.411072 585.114075,292.480377 
	C581.551575,291.642578 578.535645,292.138580 577.286255,295.716309 
	C575.954224,299.530670 578.612610,301.509125 581.801819,302.821259 
	C582.109619,302.947937 582.419678,303.069824 582.724365,303.203796 
	C631.578735,324.686829 680.431396,346.173615 729.292969,367.640411 
	C730.686523,368.252655 732.173218,368.652802 733.024048,368.946991 
	C728.300781,354.042084 723.714661,339.321259 718.857239,324.690491 
	C718.447754,323.457153 716.332092,322.338593 714.819397,321.989899 
	C684.359497,314.968933 653.871643,308.068756 622.563110,300.997681 
M1361.417847,672.080383 
	C1352.358276,663.673279 1343.298584,655.266235 1333.630737,646.294739 
	C1332.337280,658.188843 1331.344727,669.024963 1329.884766,679.797729 
	C1329.386230,683.476440 1330.821289,685.156128 1333.665771,686.875061 
	C1359.440186,702.450623 1385.142700,718.145081 1410.889160,733.767029 
	C1412.429810,734.701843 1414.175171,735.939331 1415.808594,735.914978 
	C1417.732178,735.886230 1420.646240,735.122192 1421.291992,733.787415 
	C1422.075806,732.167053 1421.155273,729.552795 1420.538574,727.498596 
	C1420.247803,726.530396 1418.951660,725.859619 1418.101318,725.064392 
	C1399.383301,707.558472 1380.664062,690.054138 1361.417847,672.080383 
M613.149780,225.834396 
	C612.017517,230.049561 614.988464,231.819489 617.821289,233.669647 
	C643.184570,250.234741 668.546265,266.802307 693.913208,283.361816 
	C700.387024,287.587921 706.877747,291.788025 713.277344,295.945892 
	C712.843506,284.854675 712.541870,274.137939 711.884766,263.443054 
	C711.781189,261.757812 710.446777,259.249512 709.045044,258.675293 
	C680.110474,246.822342 651.085510,235.189987 622.072449,223.528839 
	C618.915405,222.259933 615.900513,222.049561 613.149780,225.834396 
M690.683899,172.851044 
	C684.150269,168.855118 677.646973,164.808304 671.069763,160.885513 
	C667.945129,159.021912 664.827026,159.253372 662.689941,162.366638 
	C660.676514,165.299789 662.339783,167.566589 664.637939,169.694534 
	C673.558594,177.954590 682.369995,186.332489 691.250549,194.636078 
	C698.879639,201.769562 706.547485,208.861588 714.781128,216.513626 
	C716.221191,208.707687 717.340149,201.694382 718.867310,194.771088 
	C719.613037,191.390396 718.517944,189.651093 715.653259,187.983170 
	C707.453369,183.208908 699.425720,178.138733 690.683899,172.851044 
M1359.462646,780.154419 
	C1346.459839,762.748413 1333.457031,745.342346 1319.984619,727.307739 
	C1316.825806,735.630737 1313.901245,742.996948 1311.331421,750.484863 
	C1310.959473,751.568909 1311.892456,753.687866 1312.891235,754.566101 
	C1325.771118,765.889893 1338.757202,777.093079 1351.755981,788.280945 
	C1354.349243,790.512939 1357.412476,791.678650 1360.303223,789.121887 
	C1363.358887,786.419250 1362.104614,783.450684 1359.462646,780.154419 
z"/>
<path fill="#FFFFFF" opacity="1.000000" stroke="none" 
	d="
M1567.468628,894.000000 
	C1568.159912,893.666809 1569.316162,893.056641 1570.480225,893.041321 
	C1591.839111,892.759338 1613.088257,890.860168 1633.817505,885.820129 
	C1660.509277,879.330505 1685.440430,868.524902 1707.112671,851.254272 
	C1713.176147,846.422241 1718.817627,840.955627 1724.076294,835.248901 
	C1729.118774,829.776672 1733.413208,823.615234 1737.634521,818.266113 
	C1741.946777,830.499329 1745.563477,843.869385 1751.293945,856.262024 
	C1759.192871,873.343933 1773.392212,883.768738 1791.785645,887.889526 
	C1797.807617,889.238586 1804.110107,889.905090 1810.285767,889.913879 
	C1898.951294,890.039978 1987.617188,890.039856 2076.282471,889.863525 
	C2080.069336,889.856018 2083.852295,887.849243 2087.636963,886.773804 
	C2085.766357,883.360596 2084.454102,879.450562 2081.932373,876.616821 
	C2068.110596,861.085083 2053.283691,846.393188 2040.194458,830.281616 
	C2029.177612,816.720947 2021.944702,800.804138 2020.030518,783.023438 
	C2019.467285,777.793030 2019.042480,772.516602 2019.041504,767.261169 
	C2018.994019,514.430542 2019.000000,261.599915 2019.000000,8.769301 
	C2019.000000,6.770797 2019.000000,4.772293 2019.000000,2.386876 
	C1921.501465,2.386876 1824.106201,2.386876 1726.000000,2.386876 
	C1726.000000,4.239590 1726.000000,6.325291 1726.000000,8.410993 
	C1726.000000,212.075470 1726.054688,415.739960 1725.891724,619.404358 
	C1725.879272,634.985352 1720.098389,648.844177 1709.782227,660.770874 
	C1694.957031,677.910461 1675.526123,685.569885 1653.790405,689.071228 
	C1637.369751,691.716431 1621.351318,690.759460 1605.665161,685.246338 
	C1584.461060,677.793762 1571.313599,662.893860 1566.119385,641.180847 
	C1564.686646,635.191833 1564.087158,628.864868 1564.084106,622.692444 
	C1563.982422,418.028046 1564.000000,213.363571 1564.000000,8.699115 
	C1564.000000,6.706734 1564.000000,4.714353 1564.000000,1.999843 
	C1562.272461,1.999843 1560.689941,1.999843 1559.107422,1.999843 
	C1386.609253,1.999843 1214.111206,1.953975 1041.613159,2.086598 
	C1027.757935,2.097251 1013.884216,3.069209 1000.054810,4.081715 
	C986.658875,5.062484 973.269409,6.362985 959.946533,8.066008 
	C925.608643,12.455317 891.762573,19.261324 859.147339,31.100628 
	C834.818726,39.931919 811.880676,51.692448 791.267395,67.437874 
	C775.113647,79.776909 761.002502,94.285988 749.441711,111.111710 
	C740.701416,123.832451 733.101868,137.181595 727.671021,151.689392 
	C727.523804,152.082611 726.956604,152.318649 726.552917,152.655029 
	C717.818848,118.650833 708.987976,84.772171 700.473450,50.814190 
	C697.917419,40.620197 694.664185,31.118887 687.607361,22.885210 
	C678.516785,12.278729 667.174072,6.024422 653.857239,3.109893 
	C649.252869,2.102188 644.377258,2.043288 639.625488,2.041877 
	C470.460632,1.991659 301.295776,2.000858 132.130905,1.990998 
	C129.315613,1.990834 126.013443,1.432393 125.204498,5.036539 
	C124.855705,6.590559 125.754562,8.974219 126.905960,10.229417 
	C137.196808,21.448011 147.726227,32.447208 158.076263,43.612198 
	C170.487213,57.000416 180.792206,71.683006 185.299271,89.735329 
	C188.865005,104.017326 191.118484,118.588577 187.910873,133.090042 
	C181.199738,163.430771 173.928528,193.651993 166.541489,223.837677 
	C157.887436,259.200684 148.846268,294.468811 140.008484,329.786987 
	C130.816849,366.519104 121.674591,403.263550 112.497772,439.999420 
	C103.673958,475.322174 94.847015,510.644135 85.996765,545.960266 
	C76.438957,584.099854 66.832924,622.227295 57.284279,660.369202 
	C48.166985,696.788086 39.123646,733.225403 29.997807,769.642090 
	C20.718321,806.671936 11.374808,843.685669 2.080906,880.711853 
	C1.838681,881.676880 1.846749,882.704773 1.369053,883.851685 
	C1.000000,589.710083 1.000000,295.420135 1.000000,1.000000 
	C695.354187,1.000000 1389.708374,1.000000 2084.396484,1.358979 
	C2083.600830,1.902915 2082.382568,1.875191 2081.354980,2.304234 
	C2060.299316,11.093051 2053.922607,27.034397 2057.408691,45.952187 
	C2062.421875,73.155479 2092.956787,83.576477 2114.831299,69.706253 
	C2123.024170,64.511429 2127.669434,56.768360 2131.000000,48.000000 
	C2131.000000,329.912506 2131.000000,611.825012 2131.000000,894.000000 
	C1943.312500,894.000000 1755.624878,894.000000 1567.468628,894.000000 
z"/>
<path fill="#FFFFFF" opacity="1.000000" stroke="none" 
	d="
M1.000000,889.500000 
	C91.477470,889.000000 181.954941,889.000000 272.455383,889.000000 
	C285.423981,834.529114 298.335052,780.299988 311.241272,726.091187 
	C398.187683,726.091187 484.667786,726.091187 571.606689,726.091187 
	C585.106567,780.246521 598.627625,834.486511 612.216797,889.000061 
	C614.183289,889.000061 615.997314,889.000122 617.811340,889.000122 
	C752.636414,889.000122 887.461670,889.109436 1022.286316,888.866943 
	C1039.901855,888.835205 1057.600098,887.762939 1075.106812,885.803162 
	C1097.922363,883.249023 1120.710083,879.999268 1143.276367,875.796570 
	C1164.100342,871.918518 1184.351440,865.624878 1203.867676,857.090515 
	C1220.456665,849.836121 1236.038086,841.068237 1250.588013,830.222229 
	C1266.035889,818.707031 1278.831909,804.838867 1289.961792,789.271484 
	C1291.088989,787.694885 1292.224731,786.124390 1293.486206,784.370850 
	C1303.179199,801.901367 1314.623779,818.083252 1329.295898,831.662781 
	C1340.784668,842.296143 1353.431274,851.403564 1367.160278,859.134766 
	C1387.236938,870.440491 1408.650879,878.050659 1430.908813,883.315308 
	C1443.059937,886.189453 1455.452026,888.216431 1467.834961,889.888977 
	C1479.698364,891.491272 1491.690186,892.140930 1503.812744,893.604614 
	C1003.000000,894.000000 502.000000,894.000000 1.000000,894.000000 
	C1.000000,892.666626 1.000000,891.333313 1.000000,889.500000 
z"/>
<path fill="#901340" opacity="1.000000" stroke="none" 
	d="
M2131.000000,47.531597 
	C2127.669434,56.768360 2123.024170,64.511429 2114.831299,69.706253 
	C2092.956787,83.576477 2062.421875,73.155479 2057.408691,45.952187 
	C2053.922607,27.034397 2060.299316,11.093051 2081.354980,2.304234 
	C2082.382568,1.875191 2083.600830,1.902915 2084.865234,1.358979 
	C2090.687988,1.000000 2096.375977,1.000000 2102.672119,1.363085 
	C2107.014160,3.150467 2111.024414,4.101847 2114.427246,6.092135 
	C2122.893555,11.044321 2127.692139,19.015985 2131.000000,28.000000 
	C2131.000000,34.354397 2131.000000,40.708797 2131.000000,47.531597 
M2070.987549,60.480251 
	C2075.578857,65.732140 2081.720215,68.773987 2088.240967,69.792511 
	C2101.189941,71.815071 2112.714111,67.764404 2120.277832,56.923840 
	C2127.883057,46.024277 2128.694824,33.762577 2121.910645,21.932428 
	C2114.738525,9.425207 2102.550781,4.165249 2089.607910,6.253195 
	C2075.963379,8.454298 2066.784668,16.546303 2063.005615,30.597939 
	C2060.008057,41.744720 2063.191650,51.395477 2070.987549,60.480251 
z"/>
<path fill="#FFFFFF" opacity="1.000000" stroke="none" 
	d="
M2131.000000,27.531338 
	C2127.692139,19.015985 2122.893555,11.044321 2114.427246,6.092135 
	C2111.024414,4.101847 2107.014160,3.150467 2103.140137,1.363085 
	C2112.258545,1.000000 2121.516846,1.000000 2131.000000,1.000000 
	C2131.000000,9.686272 2131.000000,18.374474 2131.000000,27.531338 
z"/>
<path fill="#FFCA25" opacity="1.000000" stroke="none" 
	d="
M1308.556519,273.568787 
	C1302.597046,279.111053 1296.899658,284.415985 1291.202271,289.720917 
	C1291.369385,290.219360 1291.536377,290.717804 1291.703491,291.216278 
	C1293.858154,290.716705 1296.121826,290.489441 1298.151733,289.677826 
	C1352.231812,268.054688 1406.289917,246.376160 1460.343994,224.687912 
	C1463.949707,223.241180 1468.164551,221.058167 1470.538696,225.482147 
	C1473.007446,230.082092 1468.980835,232.389801 1465.469482,234.682129 
	C1417.077759,266.273712 1368.740967,297.949371 1320.395630,329.611877 
	C1319.593506,330.137146 1318.851807,330.754486 1318.221802,332.360565 
	C1319.971924,332.360565 1321.794556,332.685760 1323.461548,332.313446 
	C1380.956055,319.471680 1438.435303,306.561951 1495.920410,293.677887 
	C1497.370361,293.352936 1498.860107,293.021759 1500.332153,293.018188 
	C1503.066284,293.011505 1506.321167,292.304108 1506.998901,296.376465 
	C1507.630737,300.173370 1505.630737,302.006317 1502.262695,303.428192 
	C1490.458618,308.411774 1478.775635,313.681458 1467.037231,318.820892 
	C1425.112427,337.176636 1383.182129,355.519928 1341.262817,373.887909 
	C1339.708496,374.568970 1338.244995,375.457764 1336.739258,376.249786 
	C1336.837402,376.817688 1336.935425,377.385559 1337.033447,377.953461 
	C1341.223022,377.953461 1345.425659,378.165100 1349.599365,377.908264 
	C1357.672241,377.411530 1365.720337,376.503601 1373.794189,376.032501 
	C1387.348755,375.241699 1400.921875,374.765381 1414.475830,373.964600 
	C1435.461670,372.724731 1456.438965,371.339447 1477.417847,369.984650 
	C1492.422852,369.015656 1507.422485,367.959503 1522.429932,367.030945 
	C1525.211548,366.858795 1528.355103,366.497711 1529.015503,370.524414 
	C1529.724243,374.846802 1527.232666,376.234283 1523.509155,377.191772 
	C1465.970947,391.987061 1408.457764,406.880463 1350.942871,421.766724 
	C1349.269653,422.199768 1347.640747,422.803253 1345.991089,423.327271 
	C1345.994263,423.789490 1345.997559,424.251740 1346.000732,424.713959 
	C1347.579590,425.139893 1349.135498,425.794373 1350.740967,425.955750 
	C1363.968872,427.285187 1377.204102,428.544342 1390.440918,429.784119 
	C1412.751709,431.873749 1435.067383,433.913544 1457.377563,436.011292 
	C1481.647095,438.293274 1505.911987,440.624237 1530.180664,442.915436 
	C1533.550659,443.233582 1536.764282,444.017670 1536.892090,448.094208 
	C1537.025513,452.351898 1533.527466,453.075165 1530.330811,453.407837 
	C1518.264648,454.663483 1506.183105,455.770782 1494.105225,456.911926 
	C1472.474121,458.955750 1450.840820,460.977539 1429.209717,463.020508 
	C1411.713013,464.672974 1394.215210,466.314697 1376.723389,468.016022 
	C1366.566284,469.003937 1356.419800,470.100098 1346.268677,471.147522 
	C1346.113159,471.652313 1345.957642,472.157104 1345.802124,472.661865 
	C1347.693604,473.389526 1349.534668,474.312317 1351.484131,474.815704 
	C1384.031738,483.220184 1416.593994,491.568207 1449.150879,499.937225 
	C1473.810669,506.276184 1498.462036,512.648254 1523.131836,518.948120 
	C1526.613403,519.837158 1529.885742,521.068420 1529.330322,525.331421 
	C1528.774536,529.598083 1524.982178,530.123291 1521.672729,529.927429 
	C1507.480347,529.087524 1493.307373,527.929504 1479.120972,526.980469 
	C1463.124878,525.910156 1447.126831,524.857422 1431.120850,523.950806 
	C1417.588013,523.184326 1404.031982,522.806641 1390.505615,521.950500 
	C1373.388062,520.867188 1356.291260,519.455811 1339.179443,518.273315 
	C1338.438721,518.222107 1337.637573,519.044861 1335.954712,519.949829 
	C1338.326050,521.126221 1339.857178,521.965210 1341.449707,522.664490 
	C1394.173462,545.815857 1446.903198,568.953552 1499.630981,592.095764 
	C1500.697144,592.563721 1501.737427,593.092529 1502.813110,593.536560 
	C1505.875122,594.800415 1508.264160,596.775085 1506.983643,600.337158 
	C1505.691406,603.932617 1502.600342,604.381348 1499.114746,603.567017 
	C1489.553833,601.333679 1479.969238,599.201294 1470.392090,597.037842 
	C1424.940186,586.770264 1379.492065,576.485962 1334.023193,566.293762 
	C1331.535156,565.736084 1329.818359,565.177063 1329.273682,562.250122 
	C1322.088013,523.645203 1302.647949,491.579407 1276.156494,463.338013 
	C1247.636963,432.934692 1212.968262,411.088623 1175.318604,394.422668 
	C1135.483398,376.789185 1094.697388,361.297150 1054.270386,345.009399 
	C1030.021851,335.239868 1005.672546,325.705963 983.289795,311.964935 
	C970.569763,304.155823 958.820435,295.142334 950.224182,282.694275 
	C942.156982,271.012238 937.570190,257.995026 939.158142,243.782074 
	C941.745667,220.622070 953.545227,203.365005 974.659607,192.940353 
	C989.753174,185.488312 1005.748779,181.044907 1022.544800,180.026138 
	C1038.755493,179.042892 1055.044556,177.474899 1071.217651,178.141342 
	C1103.677368,179.478912 1134.783813,187.916245 1165.023560,199.466660 
	C1169.288940,201.095810 1171.559814,200.832809 1174.546509,197.118698 
	C1209.209229,154.014252 1244.130493,111.117805 1278.837280,68.048637 
	C1284.534912,60.978275 1286.642944,60.465458 1289.998047,62.820690 
	C1295.378052,66.597435 1291.054688,70.922134 1289.209839,74.657280 
	C1265.253784,123.161957 1241.192139,171.614471 1217.197632,220.100128 
	C1216.768311,220.967422 1216.835449,222.080383 1216.670898,223.078705 
	C1218.068848,222.626038 1219.785522,222.545929 1220.816162,221.664017 
	C1233.093506,211.158356 1245.271118,200.536179 1257.470215,189.939133 
	C1288.534424,162.954498 1319.593628,135.964264 1350.668457,108.991814 
	C1351.793701,108.015106 1353.038696,106.502762 1354.266602,106.464020 
	C1356.540527,106.392288 1359.493042,106.547554 1360.917603,107.910248 
	C1361.962158,108.909485 1361.832520,112.532249 1360.820679,114.047119 
	C1356.014404,121.243546 1350.794678,128.169525 1345.598389,135.098938 
	C1317.012329,173.219009 1288.389038,211.311081 1259.785034,249.417740 
	C1258.814575,250.710617 1257.914307,252.055984 1256.981323,253.376938 
	C1257.222168,253.771423 1257.463013,254.165894 1257.703735,254.560379 
	C1259.474365,253.792236 1261.362915,253.218826 1262.998291,252.227631 
	C1312.272461,222.363312 1361.521729,192.457687 1410.775146,162.559235 
	C1411.629028,162.040909 1412.465698,161.488235 1413.348999,161.025192 
	C1416.312744,159.471375 1419.544067,159.192398 1421.357910,162.205261 
	C1422.951782,164.852707 1422.304199,167.680191 1419.625854,170.165619 
	C1382.634277,204.494095 1345.738159,238.925369 1308.556519,273.568787 
z"/>
<path fill="#FFCA25" opacity="1.000000" stroke="none" 
	d="
M720.750305,477.789673 
	C726.852661,476.153320 732.558167,474.613586 738.263672,473.073822 
	C738.282593,472.571381 738.301575,472.068970 738.320557,471.566528 
	C736.771912,471.068695 735.252197,470.267395 733.670471,470.117096 
	C684.313171,465.426727 634.949829,460.799896 585.587402,456.163452 
	C575.021118,455.171021 564.461365,454.098999 553.884827,453.231750 
	C550.284973,452.936615 547.458130,451.703430 547.323730,447.868591 
	C547.191345,444.088440 549.902222,443.221741 553.367432,442.901123 
	C577.009888,440.713898 600.628967,438.276611 624.263977,436.006836 
	C647.387512,433.786224 670.520691,431.665100 693.650208,429.507172 
	C706.391968,428.318390 719.137451,427.167511 731.875549,425.941010 
	C734.219666,425.715302 736.536682,425.208710 738.866211,424.831726 
	C738.890625,424.323883 738.915039,423.816010 738.939453,423.308167 
	C736.524414,422.553040 734.137085,421.690277 731.690186,421.058533 
	C674.973022,406.416443 618.248596,391.802612 561.531372,377.160889 
	C559.936218,376.749146 557.820312,376.534058 556.986023,375.437134 
	C555.830750,373.918274 555.068176,371.574554 555.299683,369.729919 
	C555.432617,368.671051 557.892700,367.080139 559.254883,367.129120 
	C570.841309,367.545654 582.416504,368.276245 593.994202,368.929138 
	C599.934448,369.264130 605.876038,369.586121 611.811462,369.994995 
	C625.666687,370.949585 639.517517,371.969666 653.372498,372.929047 
	C659.140015,373.328400 664.911194,373.688782 670.684937,373.983032 
	C684.409485,374.682526 698.141907,375.240265 711.860657,376.036011 
	C720.098022,376.513824 728.327209,377.222351 736.531616,378.095215 
	C738.037170,378.255402 740.027466,379.347961 740.747437,380.608124 
	C764.008423,421.325500 798.804932,449.567749 839.160706,471.784149 
	C875.918396,492.019775 915.302917,505.963135 954.660034,520.022888 
	C983.482666,530.319336 1012.285583,540.729187 1040.715210,552.048218 
	C1060.727417,560.015930 1079.582764,570.491455 1095.202393,585.760132 
	C1114.848877,604.965027 1123.307251,628.101562 1116.835571,655.203125 
	C1111.911255,675.824585 1096.873413,688.476196 1078.940918,697.993347 
	C1060.150757,707.965576 1039.853638,713.066711 1018.816162,714.786316 
	C1005.277832,715.892944 991.482239,717.024963 978.070312,715.606812 
	C964.833008,714.207092 951.860779,709.877075 938.913086,706.320007 
	C931.068481,704.164917 923.422241,701.213867 915.827332,698.259460 
	C912.664856,697.029175 910.966736,697.469421 908.779907,700.183411 
	C873.761475,743.643311 838.607361,786.993896 803.486145,830.371033 
	C803.171936,830.759094 802.889832,831.172974 802.582153,831.566589 
	C800.301880,834.483521 797.418396,835.309998 794.234558,833.383118 
	C790.923401,831.379028 791.513611,828.474792 792.979126,825.513672 
	C798.221252,814.921692 803.415588,804.305969 808.652466,793.711365 
	C827.755920,755.063904 846.871460,716.422424 865.969238,677.772156 
	C866.607605,676.480225 867.103882,675.118042 867.666382,673.788635 
	C867.344055,673.390381 867.021790,672.992126 866.699463,672.593872 
	C864.961914,673.707642 863.053528,674.624695 861.511719,675.963806 
	C818.997925,712.887390 776.521545,749.853882 734.038574,786.812927 
	C733.410461,787.359314 732.792908,787.919128 732.146057,788.442566 
	C729.343506,790.710388 726.250061,791.154724 723.545349,788.697693 
	C720.701416,786.114258 722.054932,783.356262 724.027954,780.734436 
	C743.462463,754.909119 762.867188,729.061462 782.272583,703.214294 
	C796.376526,684.428406 810.472900,665.636902 824.556335,646.835754 
	C825.422546,645.679321 826.146851,644.416565 826.937134,643.203247 
	C826.709534,642.750854 826.481934,642.298401 826.254395,641.845947 
	C824.230164,642.682739 822.056335,643.272156 820.203796,644.392822 
	C783.727783,666.458984 747.289795,688.587952 710.842224,710.701111 
	C698.028625,718.475403 685.210510,726.242126 672.393066,734.010132 
	C671.681152,734.441528 670.908386,735.273376 670.246399,735.197754 
	C667.668274,734.903137 664.399902,735.130798 662.735596,733.649902 
	C660.237122,731.426880 661.662109,728.610657 664.064819,726.398682 
	C673.745789,717.486633 683.340027,708.480408 692.973267,699.516479 
	C724.920959,669.788086 756.858337,640.048706 788.869080,610.388428 
	C790.158325,609.193787 792.151978,608.759399 793.817444,607.970764 
	C793.148315,607.024475 792.479187,606.078186 791.810059,605.131897 
	C789.940125,605.584656 787.981018,605.814758 786.213196,606.522583 
	C732.913330,627.866760 679.632324,649.258240 626.347900,670.640991 
	C624.648743,671.322815 622.982056,672.118835 621.233826,672.637817 
	C618.184021,673.543152 615.059814,673.731689 613.427124,670.349792 
	C611.785095,666.948608 613.786194,664.795654 616.578674,662.976562 
	C634.302246,651.431519 651.982422,639.819763 669.681580,628.237244 
	C700.480225,608.082336 731.284363,587.935669 762.077026,567.771484 
	C763.499939,566.839722 764.833374,565.771362 766.208496,564.766602 
	C766.036743,564.296082 765.864990,563.825500 765.693176,563.354980 
	C764.060486,563.500305 762.386230,563.460999 760.801025,563.817505 
	C701.715332,577.107483 642.646912,590.474609 583.516785,603.563049 
	C581.706909,603.963745 578.314819,602.000549 577.422913,600.244324 
	C576.714539,598.849304 578.084900,595.222168 579.629761,594.108826 
	C582.672424,591.916077 586.461792,590.745483 589.968750,589.212708 
	C640.597412,567.084412 691.232910,544.971680 741.853638,522.825256 
	C743.862244,521.946533 745.740845,520.770569 747.424744,518.632446 
	C746.398132,518.418152 745.351501,517.950562 744.348206,518.030151 
	C737.126953,518.602722 729.922058,519.390869 722.697266,519.904541 
	C715.752380,520.398438 708.784363,520.562073 701.836182,521.016907 
	C687.503906,521.955139 673.181946,523.053528 658.847900,523.960571 
	C651.234863,524.442261 643.598206,524.548279 635.984680,525.023560 
	C621.629944,525.919800 607.286438,526.993896 592.933716,527.925476 
	C586.833008,528.321350 580.716858,528.480286 574.615479,528.867615 
	C570.326477,529.139893 566.050659,529.618042 561.768616,530.000549 
	C558.013733,530.335999 555.577026,528.559753 554.989075,524.966309 
	C554.358765,521.113403 557.168335,519.830688 560.310730,519.022766 
	C603.020691,508.041840 645.725952,497.042786 688.434265,486.055481 
	C699.070557,483.319183 709.713501,480.608673 720.750305,477.789673 
z"/>
<path fill="#FFFFFF" opacity="1.000000" stroke="none" 
	d="
M478.033997,349.843964 
	C482.040009,365.781006 486.102692,381.273743 489.980499,396.812592 
	C500.245911,437.946838 510.436218,479.099823 520.645813,520.247986 
	C524.111938,534.217468 527.546509,548.194824 531.101685,562.598511 
	C471.520081,562.598511 412.158722,562.598511 352.397308,562.598511 
	C381.992645,443.019318 411.627106,323.282043 441.565491,202.316788 
	C453.903992,252.124619 465.955200,300.772644 478.033997,349.843964 
z"/>
<path fill="#FEC925" opacity="1.000000" stroke="none" 
	d="
M1461.774536,659.244507 
	C1464.434204,661.003113 1467.139526,662.229614 1469.040283,664.223083 
	C1470.296387,665.540527 1471.286865,668.264099 1470.761597,669.798462 
	C1470.252075,671.286377 1467.768921,672.590759 1465.938843,672.985718 
	C1464.347168,673.329224 1462.375488,672.495239 1460.711060,671.832031 
	C1419.797974,655.530029 1378.895386,639.201599 1338.036743,622.763855 
	C1336.462891,622.130798 1334.248535,620.421997 1334.181641,619.119446 
	C1333.434326,604.564331 1333.051025,589.990601 1332.549316,574.802795 
	C1375.546021,602.894653 1418.512085,630.966431 1461.774536,659.244507 
z"/>
<path fill="#FEC925" opacity="1.000000" stroke="none" 
	d="
M622.976318,301.070984 
	C653.871643,308.068756 684.359497,314.968933 714.819397,321.989899 
	C716.332092,322.338593 718.447754,323.457153 718.857239,324.690491 
	C723.714661,339.321259 728.300781,354.042084 733.024048,368.946991 
	C732.173218,368.652802 730.686523,368.252655 729.292969,367.640411 
	C680.431396,346.173615 631.578735,324.686829 582.724365,303.203796 
	C582.419678,303.069824 582.109619,302.947937 581.801819,302.821259 
	C578.612610,301.509125 575.954224,299.530670 577.286255,295.716309 
	C578.535645,292.138580 581.551575,291.642578 585.114075,292.480377 
	C597.575562,295.411072 610.076904,298.172180 622.976318,301.070984 
z"/>
<path fill="#FDC825" opacity="1.000000" stroke="none" 
	d="
M1361.681396,672.314941 
	C1380.664062,690.054138 1399.383301,707.558472 1418.101318,725.064392 
	C1418.951660,725.859619 1420.247803,726.530396 1420.538574,727.498596 
	C1421.155273,729.552795 1422.075806,732.167053 1421.291992,733.787415 
	C1420.646240,735.122192 1417.732178,735.886230 1415.808594,735.914978 
	C1414.175171,735.939331 1412.429810,734.701843 1410.889160,733.767029 
	C1385.142700,718.145081 1359.440186,702.450623 1333.665771,686.875061 
	C1330.821289,685.156128 1329.386230,683.476440 1329.884766,679.797729 
	C1331.344727,669.024963 1332.337280,658.188843 1333.630737,646.294739 
	C1343.298584,655.266235 1352.358276,663.673279 1361.681396,672.314941 
z"/>
<path fill="#FEC925" opacity="1.000000" stroke="none" 
	d="
M613.332886,225.470917 
	C615.900513,222.049561 618.915405,222.259933 622.072449,223.528839 
	C651.085510,235.189987 680.110474,246.822342 709.045044,258.675293 
	C710.446777,259.249512 711.781189,261.757812 711.884766,263.443054 
	C712.541870,274.137939 712.843506,284.854675 713.277344,295.945892 
	C706.877747,291.788025 700.387024,287.587921 693.913208,283.361816 
	C668.546265,266.802307 643.184570,250.234741 617.821289,233.669647 
	C614.988464,231.819489 612.017517,230.049561 613.332886,225.470917 
z"/>
<path fill="#FDC826" opacity="1.000000" stroke="none" 
	d="
M691.007141,173.017975 
	C699.425720,178.138733 707.453369,183.208908 715.653259,187.983170 
	C718.517944,189.651093 719.613037,191.390396 718.867310,194.771088 
	C717.340149,201.694382 716.221191,208.707687 714.781128,216.513626 
	C706.547485,208.861588 698.879639,201.769562 691.250549,194.636078 
	C682.369995,186.332489 673.558594,177.954590 664.637939,169.694534 
	C662.339783,167.566589 660.676514,165.299789 662.689941,162.366638 
	C664.827026,159.253372 667.945129,159.021912 671.069763,160.885513 
	C677.646973,164.808304 684.150269,168.855118 691.007141,173.017975 
z"/>
<path fill="#FDC825" opacity="1.000000" stroke="none" 
	d="
M1359.687256,780.450623 
	C1362.104614,783.450684 1363.358887,786.419250 1360.303223,789.121887 
	C1357.412476,791.678650 1354.349243,790.512939 1351.755981,788.280945 
	C1338.757202,777.093079 1325.771118,765.889893 1312.891235,754.566101 
	C1311.892456,753.687866 1310.959473,751.568909 1311.331421,750.484863 
	C1313.901245,742.996948 1316.825806,735.630737 1319.984619,727.307739 
	C1333.457031,745.342346 1346.459839,762.748413 1359.687256,780.450623 
z"/>
<path fill="#FFFFFF" opacity="1.000000" stroke="none" 
	d="
M2070.724365,60.226807 
	C2063.191650,51.395477 2060.008057,41.744720 2063.005615,30.597939 
	C2066.784668,16.546303 2075.963379,8.454298 2089.607910,6.253195 
	C2102.550781,4.165249 2114.738525,9.425207 2121.910645,21.932428 
	C2128.694824,33.762577 2127.883057,46.024277 2120.277832,56.923840 
	C2112.714111,67.764404 2101.189941,71.815071 2088.240967,69.792511 
	C2081.720215,68.773987 2075.578857,65.732140 2070.724365,60.226807 
M2080.001221,56.277046 
	C2081.521973,62.338619 2085.841309,57.441181 2089.055420,59.274956 
	C2089.055420,53.739502 2089.055420,48.984249 2089.055420,44.357559 
	C2093.418213,43.204384 2096.136230,44.263687 2097.238770,48.531174 
	C2097.596436,49.914986 2098.466553,51.168533 2099.117432,52.474060 
	C2102.796631,59.854889 2103.182861,60.034512 2112.734131,58.256527 
	C2111.147705,55.556736 2109.629639,53.157631 2108.298584,50.659168 
	C2106.865234,47.969330 2105.606689,45.186287 2104.280762,42.439583 
	C2111.888916,34.915245 2113.437256,29.673851 2108.958252,22.697598 
	C2107.332031,20.164423 2103.927490,17.589645 2101.077637,17.261084 
	C2094.245605,16.473423 2087.261475,17.006462 2080.000000,17.006462 
	C2080.000000,30.122055 2080.000000,42.718025 2080.001221,56.277046 
z"/>
<path fill="#901340" opacity="1.000000" stroke="none" 
	d="
M2080.000488,55.795521 
	C2080.000000,42.718025 2080.000000,30.122055 2080.000000,17.006462 
	C2087.261475,17.006462 2094.245605,16.473423 2101.077637,17.261084 
	C2103.927490,17.589645 2107.332031,20.164423 2108.958252,22.697598 
	C2113.437256,29.673851 2111.888916,34.915245 2104.276367,42.441757 
	C2105.606689,45.186287 2106.865234,47.969330 2108.298584,50.659168 
	C2109.629639,53.157631 2111.147705,55.556736 2112.734131,58.256527 
	C2103.182861,60.034512 2102.796631,59.854889 2099.117432,52.474060 
	C2098.466553,51.168533 2097.596436,49.914986 2097.238770,48.531174 
	C2096.136230,44.263687 2093.418213,43.204384 2089.055420,44.357559 
	C2089.055420,48.984249 2089.055420,53.739502 2089.055420,59.274956 
	C2085.841309,57.441181 2081.521973,62.338619 2080.000488,55.795521 
M2098.580566,35.861954 
	C2101.025391,33.688843 2103.982910,31.318106 2101.836426,27.765905 
	C2098.992920,23.059669 2094.026611,24.015146 2089.242676,24.102264 
	C2089.242676,28.076269 2089.242676,31.816856 2089.242676,35.983162 
	C2092.181641,35.983162 2094.967041,35.983162 2098.580566,35.861954 
z"/>
<path fill="#FFFFFF" opacity="1.000000" stroke="none" 
	d="
M2098.166504,35.922558 
	C2094.967041,35.983162 2092.181641,35.983162 2089.242676,35.983162 
	C2089.242676,31.816856 2089.242676,28.076269 2089.242676,24.102264 
	C2094.026611,24.015146 2098.992920,23.059669 2101.836426,27.765905 
	C2103.982910,31.318106 2101.025391,33.688843 2098.166504,35.922558 
z"/>
</svg>