<svg version="1.1" id="Layer_1" xmlns="http://www.w3.org/2000/svg" xmlns:xlink="http://www.w3.org/1999/xlink" x="0px" y="0px"
	 width="100%" viewBox="0 0 300 300" enable-background="new 0 0 300 300" xml:space="preserve">
<path fill="#8B274C" opacity="1.000000" stroke="none" 
	d="
M173.000000,301.000000 
	C115.333344,301.000000 58.166687,301.000000 1.000023,301.000000 
	C1.000015,201.000031 1.000015,101.000053 1.000008,1.000063 
	C100.999947,1.000042 200.999893,1.000042 300.999878,1.000021 
	C300.999939,100.999939 300.999939,200.999878 300.999969,300.999908 
	C258.500000,301.000000 216.000000,301.000000 173.000000,301.000000 
M207.292572,117.632568 
	C206.995148,117.522430 206.613876,117.247917 206.422440,117.345558 
	C206.204544,117.456726 206.049576,117.899979 206.049240,118.199081 
	C206.032242,133.511093 206.005585,148.823318 206.104767,164.134705 
	C206.110962,165.088638 207.120865,166.036072 207.817459,167.716583 
	C206.854828,172.743698 203.281845,174.040039 198.900177,173.469864 
	C194.352402,172.878067 193.919189,169.369385 193.957626,165.582214 
	C194.045547,156.920334 193.984955,148.256943 193.984818,139.594162 
	C193.984711,131.657211 193.984818,123.720253 193.984818,115.608383 
	C177.808121,115.608383 162.183304,115.393379 146.568161,115.689156 
	C137.223694,115.866150 128.450363,118.033745 122.786911,127.675819 
	C121.941040,124.400047 121.759346,121.791313 120.590912,119.746391 
	C119.571518,117.962311 117.467400,115.611122 115.795547,115.573036 
	C101.386330,115.244774 86.966454,115.384293 72.267944,115.384293 
	C77.778732,124.084541 77.779686,124.084778 75.163216,134.540085 
	C71.568703,148.903641 67.998329,163.273315 64.369949,177.628311 
	C60.664600,192.287796 61.750935,193.226913 77.037766,191.340607 
	C82.885475,190.619034 86.041595,188.588852 86.190552,182.511368 
	C86.229469,180.923569 87.011787,179.353958 87.387230,178.010269 
	C95.058983,177.611679 102.398941,177.230331 109.702950,176.850845 
	C110.971695,181.665161 112.107857,185.976379 113.272697,190.396393 
	C124.738586,190.396393 135.893860,190.499054 147.046219,190.363846 
	C155.941849,190.255997 164.700150,189.453613 171.043625,182.014618 
	C180.184479,192.830856 197.905884,194.164886 208.014359,185.639679 
	C210.114731,187.270233 212.007523,189.984253 214.069992,190.120010 
	C221.962875,190.639450 229.910324,190.330017 237.496857,190.330017 
	C235.815979,186.823227 233.021210,183.657791 232.967926,180.446869 
	C232.633667,160.304001 232.910141,140.150986 233.790802,119.955330 
	C236.566620,119.840576 239.355179,119.843712 242.111221,119.545921 
	C243.052032,119.444260 244.092514,118.741844 244.724136,118.003227 
	C245.002075,117.678246 244.612045,116.285820 244.114868,115.876228 
	C241.279831,113.540718 235.735901,114.034187 232.519058,115.997086 
	C224.948517,115.761658 217.378372,115.453346 209.806732,115.410217 
	C209.095856,115.406174 208.375458,117.074196 207.292572,117.632568 
z"/>
<path fill="#FCF9FA" opacity="1.000000" stroke="none" 
	d="
M232.984558,120.001335 
	C232.910141,140.150986 232.633667,160.304001 232.967926,180.446869 
	C233.021210,183.657791 235.815979,186.823227 237.496857,190.330017 
	C229.910324,190.330017 221.962875,190.639450 214.069992,190.120010 
	C212.007523,189.984253 210.114731,187.270233 208.014359,185.639679 
	C197.905884,194.164886 180.184479,192.830856 171.043625,182.014618 
	C164.700150,189.453613 155.941849,190.255997 147.046219,190.363846 
	C135.893860,190.499054 124.738586,190.396393 113.272697,190.396393 
	C112.107857,185.976379 110.971695,181.665161 109.702950,176.850845 
	C102.398941,177.230331 95.058983,177.611679 87.387230,178.010269 
	C87.011787,179.353958 86.229469,180.923569 86.190552,182.511368 
	C86.041595,188.588852 82.885475,190.619034 77.037766,191.340607 
	C61.750935,193.226913 60.664600,192.287796 64.369949,177.628311 
	C67.998329,163.273315 71.568703,148.903641 75.163216,134.540085 
	C77.779686,124.084778 77.778732,124.084541 72.267944,115.384293 
	C86.966454,115.384293 101.386330,115.244774 115.795547,115.573036 
	C117.467400,115.611122 119.571518,117.962311 120.590912,119.746391 
	C121.759346,121.791313 121.941040,124.400047 122.786911,127.675819 
	C128.450363,118.033745 137.223694,115.866150 146.568161,115.689156 
	C162.183304,115.393379 177.808121,115.608383 193.984818,115.608383 
	C193.984818,123.720253 193.984711,131.657211 193.984818,139.594162 
	C193.984955,148.256943 194.045547,156.920334 193.957626,165.582214 
	C193.919189,169.369385 194.352402,172.878067 198.900177,173.469864 
	C203.281845,174.040039 206.854828,172.743698 207.819519,166.889648 
	C207.767532,150.030457 207.713516,133.998184 207.659485,117.965897 
	C208.375458,117.074196 209.095856,115.406174 209.806732,115.410217 
	C217.378372,115.453346 224.948517,115.761658 232.669220,116.564758 
	C232.874420,118.088730 232.929489,119.045029 232.984558,120.001335 
M177.852188,155.049057 
	C181.372437,154.643677 184.892700,154.238312 188.412949,153.832932 
	C188.412598,153.609192 188.412231,153.385452 188.411880,153.161697 
	C184.605453,152.735611 180.799042,152.309525 176.753036,151.651627 
	C176.538559,151.590836 176.331467,151.510925 176.852020,151.143478 
	C180.421173,149.971954 183.990311,148.800430 187.559464,147.628906 
	C185.608780,146.944336 183.800735,146.945023 181.992676,146.944153 
	C180.037033,146.943222 178.081375,146.940826 176.040421,146.498734 
	C176.040421,146.498734 176.132019,146.059662 176.869080,146.003067 
	C179.233475,144.862747 181.597855,143.722412 183.962250,142.582092 
	C183.889832,142.364517 183.817413,142.146942 183.744995,141.929367 
	C181.252625,142.083023 178.760254,142.236664 174.875977,142.476120 
	C177.656860,140.098816 179.213577,138.768021 181.794174,136.561935 
	C177.601776,137.557526 174.821640,138.217743 172.037308,138.458435 
	C172.037308,138.458435 172.127411,138.048660 172.776688,137.869064 
	C174.481522,136.054047 176.186371,134.239029 177.891220,132.424026 
	C177.695023,132.153152 177.498840,131.882294 177.302658,131.611420 
	C174.921799,132.806808 172.540939,134.002213 170.160095,135.197601 
	C171.855377,133.401337 173.550659,131.605057 175.245926,129.808792 
	C173.076904,129.495010 170.907883,129.181229 168.738846,128.867462 
	C167.881241,129.710632 167.023636,130.553818 166.166031,131.396988 
	C166.898895,129.391129 167.631744,127.385269 168.364609,125.379410 
	C167.981995,125.162186 167.599365,124.944954 167.216751,124.727722 
	C165.632858,126.526245 164.048965,128.324768 161.970200,130.521576 
	C160.480698,130.999924 158.995331,131.864990 157.500885,131.880951 
	C153.689087,131.921768 149.852051,131.278854 146.069092,131.541977 
	C144.479080,131.652557 142.220444,133.051682 141.681534,134.421860 
	C141.098969,135.903015 141.553436,138.662872 142.655350,139.743591 
	C144.590652,141.641678 147.291885,142.832855 149.800644,144.057159 
	C155.438156,146.808411 161.154266,149.398544 167.054153,152.549515 
	C167.365540,152.681320 167.676926,152.813141 168.465271,153.337845 
	C169.322708,154.227234 170.180145,155.116608 171.076645,156.555786 
	C171.363937,156.771820 171.651245,156.987869 172.052490,157.728607 
	C172.377365,158.153732 172.702240,158.578842 173.061295,159.563477 
	C173.370239,159.688034 173.679169,159.812576 174.692413,159.926987 
	C175.795044,159.616318 176.897675,159.305664 178.767090,159.257874 
	C181.115616,159.523499 183.464127,159.789139 185.812653,160.054764 
	C185.898071,159.452026 185.983505,158.849289 186.068924,158.246552 
	C183.393173,157.790268 180.717407,157.333969 177.912994,156.389771 
	C177.609924,155.903641 177.306839,155.417511 177.852188,155.049057 
M125.150963,149.090500 
	C120.492409,148.075653 115.833847,147.060791 111.175293,146.045929 
	C111.080063,146.516083 110.984825,146.986221 110.889587,147.456375 
	C114.870216,148.751633 118.850838,150.046906 122.129944,151.625595 
	C118.359535,152.178040 114.589119,152.730499 110.818703,153.282944 
	C110.828079,153.447525 110.837456,153.612122 110.846840,153.776703 
	C114.531471,154.297867 118.216103,154.819046 121.900734,155.340210 
	C121.952583,155.564072 122.004440,155.787949 122.056297,156.011810 
	C118.852539,156.790573 115.648781,157.569321 112.445023,158.348083 
	C112.458328,158.746490 112.471634,159.144897 112.484940,159.543304 
	C115.116364,159.794754 117.747795,160.046188 121.634369,160.417572 
	C118.173157,162.075195 115.676788,163.270752 113.180412,164.466293 
	C113.260551,164.732300 113.340698,164.998322 113.420837,165.264328 
	C116.723274,164.831161 120.025703,164.397995 124.679611,163.787567 
	C121.765511,165.907990 119.947197,167.231064 118.128876,168.554153 
	C118.256157,168.788788 118.383438,169.023407 118.510719,169.258041 
	C120.832779,168.877899 123.154839,168.497757 126.291138,167.984299 
	C124.193810,170.215530 122.646378,171.861755 121.098938,173.507980 
	C121.269989,173.793655 121.441032,174.079330 121.612076,174.365005 
	C124.192726,173.210464 126.773376,172.055908 130.379700,170.442490 
	C128.212936,173.756973 126.711723,176.053360 124.727394,178.739761 
	C124.613182,179.116089 124.498970,179.492432 124.384758,179.868759 
	C125.012367,179.669907 125.639969,179.471069 126.839424,178.860687 
	C128.296936,177.783340 129.754456,176.706009 131.211960,175.628662 
	C131.536560,175.995438 131.861145,176.362228 132.185730,176.729004 
	C131.550583,178.430344 130.915451,180.131683 130.280304,181.833023 
	C132.440735,181.105118 133.919296,179.724747 135.172470,178.163452 
	C137.123978,175.732162 138.943649,174.313202 142.580185,175.403427 
	C145.230896,176.198090 148.632111,175.789474 151.294571,174.814102 
	C153.258789,174.094513 155.653641,171.721375 155.871994,169.853043 
	C156.094757,167.946960 154.377716,165.067291 152.642685,163.849823 
	C149.859665,161.896957 146.259079,161.159592 143.188492,159.555420 
	C137.225296,156.440140 131.390167,153.079758 125.150963,149.090500 
M92.293282,162.946182 
	C96.838470,162.946182 101.383652,162.946182 106.420944,162.946182 
	C103.863495,152.830826 101.481834,143.410751 99.100174,133.990692 
	C98.768402,134.040039 98.436630,134.089386 98.104866,134.138733 
	C95.907837,143.630371 93.710815,153.121994 92.293282,162.946182 
M112.068039,141.193039 
	C115.559746,142.892288 119.051460,144.591553 122.543167,146.290817 
	C121.097267,140.493378 116.620712,141.389420 112.068039,141.193039 
z"/>
<path fill="#861D44" opacity="1.000000" stroke="none" 
	d="
M207.476028,117.799240 
	C207.713516,133.998184 207.767532,150.030457 207.742676,166.524628 
	C207.120865,166.036072 206.110962,165.088638 206.104767,164.134705 
	C206.005585,148.823318 206.032242,133.511093 206.049240,118.199081 
	C206.049576,117.899979 206.204544,117.456726 206.422440,117.345558 
	C206.613876,117.247917 206.995148,117.522430 207.476028,117.799240 
z"/>
<path fill="#841B42" opacity="1.000000" stroke="none" 
	d="
M233.387680,119.978333 
	C232.929489,119.045029 232.874420,118.088730 232.912628,116.928513 
	C235.735901,114.034187 241.279831,113.540718 244.114868,115.876228 
	C244.612045,116.285820 245.002075,117.678246 244.724136,118.003227 
	C244.092514,118.741844 243.052032,119.444260 242.111221,119.545921 
	C239.355179,119.843712 236.566620,119.840576 233.387680,119.978333 
z"/>
<path fill="#8A264B" opacity="1.000000" stroke="none" 
	d="
M125.210510,178.349747 
	C126.711723,176.053360 128.212936,173.756973 130.379700,170.442490 
	C126.773376,172.055908 124.192726,173.210464 121.612076,174.365005 
	C121.441032,174.079330 121.269989,173.793655 121.098938,173.507980 
	C122.646378,171.861755 124.193810,170.215530 126.291138,167.984299 
	C123.154839,168.497757 120.832779,168.877899 118.510719,169.258041 
	C118.383438,169.023407 118.256157,168.788788 118.128876,168.554153 
	C119.947197,167.231064 121.765511,165.907990 124.679611,163.787567 
	C120.025703,164.397995 116.723274,164.831161 113.420837,165.264328 
	C113.340698,164.998322 113.260551,164.732300 113.180412,164.466293 
	C115.676788,163.270752 118.173157,162.075195 121.634369,160.417572 
	C117.747795,160.046188 115.116364,159.794754 112.484940,159.543304 
	C112.471634,159.144897 112.458328,158.746490 112.445023,158.348083 
	C115.648781,157.569321 118.852539,156.790573 122.056297,156.011810 
	C122.004440,155.787949 121.952583,155.564072 121.900734,155.340210 
	C118.216103,154.819046 114.531471,154.297867 110.846840,153.776703 
	C110.837456,153.612122 110.828079,153.447525 110.818703,153.282944 
	C114.589119,152.730499 118.359535,152.178040 122.759224,151.209229 
	C124.092995,150.468903 124.797485,150.144913 125.501976,149.820923 
	C131.390167,153.079758 137.225296,156.440140 143.188492,159.555420 
	C146.259079,161.159592 149.859665,161.896957 152.642685,163.849823 
	C154.377716,165.067291 156.094757,167.946960 155.871994,169.853043 
	C155.653641,171.721375 153.258789,174.094513 151.294571,174.814102 
	C148.632111,175.789474 145.230896,176.198090 142.580185,175.403427 
	C138.943649,174.313202 137.123978,175.732162 135.172470,178.163452 
	C133.919296,179.724747 132.440735,181.105118 130.280304,181.833023 
	C130.915451,180.131683 131.550583,178.430344 132.185730,176.729004 
	C131.861145,176.362228 131.536560,175.995438 131.211960,175.628662 
	C129.754456,176.706009 128.296936,177.783340 126.290878,178.833954 
	C125.565063,178.654724 125.387794,178.502228 125.210510,178.349747 
z"/>
<path fill="#8C294E" opacity="1.000000" stroke="none" 
	d="
M176.132019,146.059662 
	C176.132019,146.059662 176.040421,146.498734 175.885757,146.980331 
	C175.864639,148.778580 175.998199,150.095230 176.131744,151.411880 
	C176.331467,151.510925 176.538559,151.590836 176.870331,152.148529 
	C176.993011,153.407410 176.998383,154.169388 177.003754,154.931381 
	C177.306839,155.417511 177.609924,155.903641 177.965408,156.986511 
	C178.011978,158.053833 178.006134,158.524414 178.000290,158.994995 
	C176.897675,159.305664 175.795044,159.616318 174.203796,159.753296 
	C173.513443,159.354721 173.284088,159.162827 173.027115,159.003967 
	C172.702240,158.578842 172.377365,158.153732 171.872787,157.246521 
	C171.474579,156.511627 171.256088,156.258820 171.037582,156.005997 
	C170.180145,155.116608 169.322708,154.227234 168.058868,152.964203 
	C167.402069,152.379990 167.130707,152.201218 166.838394,152.054260 
	C161.154266,149.398544 155.438156,146.808411 149.800644,144.057159 
	C147.291885,142.832855 144.590652,141.641678 142.655350,139.743591 
	C141.553436,138.662872 141.098969,135.903015 141.681534,134.421860 
	C142.220444,133.051682 144.479080,131.652557 146.069092,131.541977 
	C149.852051,131.278854 153.689087,131.921768 157.500885,131.880951 
	C158.995331,131.864990 160.480698,130.999924 162.417511,130.606903 
	C165.952347,133.144363 169.039871,135.596512 172.127411,138.048660 
	C172.127411,138.048660 172.037308,138.458435 172.095154,139.020782 
	C173.479324,141.741989 174.805679,143.900818 176.132019,146.059662 
z"/>
<path fill="#8F2E52" opacity="1.000000" stroke="none" 
	d="
M91.903534,162.779907 
	C93.710815,153.121994 95.907837,143.630371 98.104866,134.138733 
	C98.436630,134.089386 98.768402,134.040039 99.100174,133.990692 
	C101.481834,143.410751 103.863495,152.830826 106.420944,162.946182 
	C101.383652,162.946182 96.838470,162.946182 91.903534,162.779907 
z"/>
<path fill="#882147" opacity="1.000000" stroke="none" 
	d="
M172.452057,137.958862 
	C169.039871,135.596512 165.952347,133.144363 162.664948,130.407745 
	C164.048965,128.324768 165.632858,126.526245 167.216751,124.727722 
	C167.599365,124.944954 167.981995,125.162186 168.364609,125.379410 
	C167.631744,127.385269 166.898895,129.391129 166.166031,131.396988 
	C167.023636,130.553818 167.881241,129.710632 168.738846,128.867462 
	C170.907883,129.181229 173.076904,129.495010 175.245926,129.808792 
	C173.550659,131.605057 171.855377,133.401337 170.160095,135.197601 
	C172.540939,134.002213 174.921799,132.806808 177.302658,131.611420 
	C177.498840,131.882294 177.695023,132.153152 177.891220,132.424026 
	C176.186371,134.239029 174.481522,136.054047 172.452057,137.958862 
z"/>
<path fill="#882147" opacity="1.000000" stroke="none" 
	d="
M176.500549,146.031372 
	C174.805679,143.900818 173.479324,141.741989 172.097244,139.230560 
	C174.821640,138.217743 177.601776,137.557526 181.794174,136.561935 
	C179.213577,138.768021 177.656860,140.098816 174.875977,142.476120 
	C178.760254,142.236664 181.252625,142.083023 183.744995,141.929367 
	C183.817413,142.146942 183.889832,142.364517 183.962250,142.582092 
	C181.597855,143.722412 179.233475,144.862747 176.500549,146.031372 
z"/>
<path fill="#8C294D" opacity="1.000000" stroke="none" 
	d="
M125.326462,149.455719 
	C124.797485,150.144913 124.092995,150.468903 123.109985,151.067520 
	C118.850838,150.046906 114.870216,148.751633 110.889587,147.456375 
	C110.984825,146.986221 111.080063,146.516083 111.175293,146.045929 
	C115.833847,147.060791 120.492409,148.075653 125.326462,149.455719 
z"/>
<path fill="#973E5F" opacity="1.000000" stroke="none" 
	d="
M112.390961,141.113174 
	C116.620712,141.389420 121.097267,140.493378 122.543167,146.290817 
	C119.051460,144.591553 115.559746,142.892288 112.390961,141.113174 
z"/>
<path fill="#882147" opacity="1.000000" stroke="none" 
	d="
M176.491882,151.277679 
	C175.998199,150.095230 175.864639,148.778580 175.928406,147.200500 
	C178.081375,146.940826 180.037033,146.943222 181.992676,146.944153 
	C183.800735,146.945023 185.608780,146.944336 187.559464,147.628906 
	C183.990311,148.800430 180.421173,149.971954 176.491882,151.277679 
z"/>
<path fill="#882147" opacity="1.000000" stroke="none" 
	d="
M177.427979,154.990219 
	C176.998383,154.169388 176.993011,153.407410 176.990128,152.264420 
	C180.799042,152.309525 184.605453,152.735611 188.411880,153.161697 
	C188.412231,153.385452 188.412598,153.609192 188.412949,153.832932 
	C184.892700,154.238312 181.372437,154.643677 177.427979,154.990219 
z"/>
<path fill="#882147" opacity="1.000000" stroke="none" 
	d="
M178.383698,159.126434 
	C178.006134,158.524414 178.011978,158.053833 178.029739,157.230469 
	C180.717407,157.333969 183.393173,157.790268 186.068924,158.246552 
	C185.983505,158.849289 185.898071,159.452026 185.812653,160.054764 
	C183.464127,159.789139 181.115616,159.523499 178.383698,159.126434 
z"/>
<path fill="#8A264B" opacity="1.000000" stroke="none" 
	d="
M126.004951,179.039703 
	C125.639969,179.471069 125.012367,179.669907 124.384750,179.868759 
	C124.498970,179.492432 124.613182,179.116089 124.968956,178.544754 
	C125.387794,178.502228 125.565063,178.654724 126.004951,179.039703 
z"/>
<path fill="#882147" opacity="1.000000" stroke="none" 
	d="
M166.946274,152.301880 
	C167.130707,152.201218 167.402069,152.379990 167.820389,152.767761 
	C167.676926,152.813141 167.365540,152.681320 166.946274,152.301880 
z"/>
<path fill="#882147" opacity="1.000000" stroke="none" 
	d="
M171.057114,156.280884 
	C171.256088,156.258820 171.474579,156.511627 171.815811,156.984177 
	C171.651245,156.987869 171.363937,156.771820 171.057114,156.280884 
z"/>
<path fill="#882147" opacity="1.000000" stroke="none" 
	d="
M173.044205,159.283722 
	C173.284088,159.162827 173.513443,159.354721 173.851639,159.758362 
	C173.679169,159.812576 173.370239,159.688034 173.044205,159.283722 
z"/>
</svg>