<?xml version="1.0" standalone="no"?>
<!DOCTYPE svg PUBLIC "-//W3C//DTD SVG 20010904//EN"
 "http://www.w3.org/TR/2001/REC-SVG-20010904/DTD/svg10.dtd">
<svg version="1.0" xmlns="http://www.w3.org/2000/svg"
 width="300.000000pt" height="300.000000pt" viewBox="0 0 300.000000 300.000000"
 preserveAspectRatio="xMidYMid meet">

<g transform="translate(0.000000,300.000000) scale(0.100000,-0.100000)"
fill="#000000" stroke="none">
<path d="M0 1500 l0 -1500 1500 0 1500 0 0 1500 0 1500 -1500 0 -1500 0 0
-1500z m1177 345 c13 -9 24 -31 28 -55 6 -35 25 -67 25 -42 0 20 65 72 109 88
38 14 94 18 319 22 l272 4 0 -274 c0 -210 3 -278 13 -292 20 -27 86 -24 109 4
16 20 18 48 18 291 l0 269 125 0 125 0 0 -341 0 -340 25 -33 c14 -18 25 -36
25 -39 0 -11 -226 -8 -253 2 -14 6 -28 19 -32 31 -6 19 -8 20 -24 6 -75 -68
-273 -58 -336 16 -24 28 -28 30 -37 15 -15 -27 -82 -56 -155 -67 -37 -5 -145
-10 -239 -10 l-172 0 -17 70 -17 70 -112 0 -112 0 -14 -67 -15 -68 -118 -3
c-110 -2 -118 -1 -113 15 23 78 156 628 156 647 0 13 -11 38 -25 54 -14 17
-25 33 -25 36 0 3 100 6 223 6 181 0 227 -3 244 -15z m1182 8 c0 -5 -4 -17 -8
-28 -7 -17 -8 -17 -13 8 -4 19 -1 27 8 27 8 0 14 -3 13 -7z m31 -5 c0 -7 -5
-20 -10 -28 -8 -12 -10 -9 -10 13 0 15 5 27 10 27 6 0 10 -6 10 -12z m40 -16
c0 -11 -8 -18 -20 -18 -23 0 -24 1 -8 25 14 22 28 18 28 -7z"/>
<path d="M1649 1748 c-24 -29 -44 -54 -45 -56 -1 -2 -25 1 -54 6 -60 11 -119
1 -137 -24 -32 -44 -7 -67 127 -124 108 -46 174 -96 186 -144 5 -20 17 -27 69
-40 93 -23 99 -19 20 15 -38 16 -72 33 -75 36 -3 3 33 3 80 -1 l85 -5 -80 21
c-72 20 -77 23 -50 29 17 4 53 8 80 9 41 2 45 3 25 10 -14 4 -49 8 -78 9 -67
1 -60 14 15 30 88 20 90 27 5 24 l-77 -3 70 34 c39 19 68 35 65 35 -3 0 -38
-8 -77 -18 -40 -11 -73 -16 -73 -12 0 4 25 22 55 40 79 48 77 55 -6 21 -39
-17 -75 -30 -78 -30 -3 1 21 26 54 56 l60 56 -50 -28 c-27 -15 -61 -34 -75
-43 -22 -14 -21 -11 10 32 19 27 38 51 42 53 5 3 8 10 8 16 0 6 -25 -11 -55
-37 -30 -25 -55 -44 -55 -40 0 3 14 32 30 65 17 33 28 60 26 60 -2 0 -23 -24
-47 -52z"/>
<path d="M1184 1701 c21 -23 26 -26 26 -11 0 5 -10 15 -22 21 -23 12 -23 12
-4 -10z"/>
<path d="M938 1525 l-35 -145 73 0 c41 0 74 3 74 8 -1 13 -68 273 -72 277 -2
2 -20 -61 -40 -140z"/>
<path d="M1130 1663 c0 -5 18 -18 40 -31 22 -12 40 -18 40 -13 0 6 -18 20 -40
31 -22 11 -40 17 -40 13z"/>
<path d="M1100 1605 c0 -7 113 -55 118 -50 12 11 -25 33 -70 43 -27 5 -48 8
-48 7z"/>
<path d="M1086 1539 c2 -4 33 -13 69 -20 36 -7 65 -16 65 -21 0 -4 -21 -9 -47
-9 -27 -1 -61 -5 -78 -9 -26 -7 -22 -8 25 -10 30 -1 66 -5 80 -9 21 -6 13 -10
-47 -25 -40 -10 -73 -20 -73 -23 0 -3 35 -2 78 2 87 8 87 0 0 -35 -32 -13 -56
-25 -54 -27 2 -2 34 3 71 12 37 8 70 14 72 12 2 -2 -24 -21 -57 -41 -34 -21
-59 -40 -57 -42 2 -2 30 7 62 21 31 14 62 24 68 22 5 -1 -14 -22 -42 -46 -29
-24 -50 -46 -47 -48 2 -3 30 12 61 32 32 20 59 34 61 32 2 -2 -14 -28 -36 -57
-22 -30 -40 -55 -40 -58 0 -2 27 19 60 48 33 29 60 49 60 46 0 -4 -14 -35 -30
-69 -33 -66 -29 -64 41 20 25 30 28 31 66 20 32 -8 49 -7 78 4 46 17 60 37 51
73 -7 29 -19 35 -180 101 -40 17 -86 45 -107 66 -34 34 -42 37 -107 41 -39 2
-69 1 -66 -3z"/>
<path d="M1740 1346 c0 -12 39 -33 100 -53 8 -3 -8 11 -37 31 -58 40 -63 42
-63 22z"/>
<path d="M1735 1291 c-3 -5 0 -13 7 -17 7 -4 24 -14 38 -23 23 -14 23 -13 -4
17 -33 36 -33 36 -41 23z"/>
<path d="M1720 1220 c0 -5 10 -15 23 -21 22 -12 22 -12 3 10 -21 23 -26 26
-26 11z"/>
</g>
</svg>
